<?xml version="1.0" encoding="UTF-8"?>
<svg id="Layer_2" data-name="Layer 2" xmlns="http://www.w3.org/2000/svg" viewBox="0 0 106.09 144.25">
  <defs>
    <style>
      .cls-1 {
        font-family: Baloo2-SemiBold, 'Baloo2 SemiBold';
        font-size: 26.43px;
        font-weight: 600;
      }

      .cls-2 {
        letter-spacing: -.06em;
      }

      .cls-2, .cls-3 {
        fill: #444;
      }

      .cls-3, .cls-4 {
        letter-spacing: .01em;
      }

      .cls-4, .cls-5 {
        fill: #9fc749;
      }

      .cls-5, .cls-6 {
        stroke-width: 0px;
      }

      .cls-6 {
        fill: #fff;
      }
    </style>
  </defs>
  <g id="OBJECTS">
    <g>
      <text class="cls-1" transform="translate(.03 137.64) scale(.96 1)"><tspan class="cls-2" x="0" y="0">T</tspan><tspan class="cls-3" x="11.63" y="0">ech</tspan><tspan class="cls-4" x="52.5" y="0">Shop</tspan></text>
      <g>
        <path class="cls-5" d="M30.61,93.98c-2.58-.49-4.83-2.08-6.15-4.36-1.32-2.26-1.6-4.98-.77-7.46l6.53-23.45c-5.43-.48-10.28-4.01-12.27-9.43l-4.46-12.15c-.41-1.11.16-2.34,1.27-2.75.06-.02.12-.04.17-.06,1.06-.3,2.19.28,2.57,1.33l4.46,12.14c1.5,4.08,5.29,6.64,9.43,6.69l9.16-32.89L8.32,29.78c-2.33.59-3.86,2.81-3.6,5.2l7.77,61.31c.34,3.01,3.26,5.03,6.19,4.29l19.96-5.06-8.03-1.54Z"/>
        <path class="cls-5" d="M74.51,21.79l-7.79-1.45,1.45-7.79c.53-2.86,3.28-4.75,6.15-4.22l7.79,1.45-1.45,7.79c-.53,2.86-3.28,4.75-6.15,4.22Z"/>
        <path class="cls-5" d="M93.6,16.17l-7.79-1.45,1.45-7.79c.53-2.86,3.28-4.75,6.15-4.22l7.79,1.45-1.45,7.79c-.53,2.86-3.28,4.75-6.15,4.22Z"/>
        <path class="cls-5" d="M59.23,9.11l-5.44-1.01,1.01-5.44c.33-1.77,2.03-2.94,3.8-2.61l5.44,1.01-1.01,5.44c-.33,1.77-2.03,2.94-3.8,2.61Z"/>
        <g>
          <path class="cls-5" d="M101.78,35.09c.07-2.36-1.58-4.43-3.9-4.87l-45.89-8.79c-.3-.06-.61-.09-.91-.09-2.03,0-3.88,1.29-4.55,3.27l-18.94,58.83c-.97,2.87.82,5.94,3.79,6.51l61.68,11.81c.32.06.64.09.95.09,2.64,0,4.9-2.1,4.98-4.85l2.79-61.92Z"/>
          <path class="cls-6" d="M52.86,34.44l-1.42,12.86c-.82,7.49,4.12,14.27,11.5,15.78l7.65,1.57c.06.01.12.02.18.04,7.35,1.41,14.66-3.1,16.68-10.32l3.54-12.61c.32-1.14-.35-2.32-1.48-2.64-.06-.02-.12-.03-.18-.04-1.08-.21-2.16.45-2.46,1.52l-3.54,12.61c-1.43,5.09-6.53,8.28-11.74,7.28-.05,0-.1-.02-.15-.03l-7.65-1.57c-5.2-1.06-8.69-5.85-8.11-11.12l1.42-12.86c.12-1.11-.63-2.13-1.71-2.33-.06-.01-.12-.02-.18-.03-1.17-.13-2.23.72-2.36,1.89Z"/>
        </g>
      </g>
    </g>
  </g>
</svg>