<?xml version="1.0" encoding="utf-8"?>
<!-- Generator: Adobe Illustrator 28.1.0, SVG Export Plug-In . SVG Version: 6.00 Build 0)  -->
<svg version="1.1" id="Layer_1" xmlns="http://www.w3.org/2000/svg" xmlns:xlink="http://www.w3.org/1999/xlink" x="0px" y="0px"
	 viewBox="0 0 500 500" enable-background="new 0 0 500 500" xml:space="preserve">
<g id="BACKGROUND">
</g>
<g id="OBJECTS">
	<g>
		<g>
			<g>
				<text transform="matrix(0.9567 0 0 1 65.8852 470.6514)" fill="#444444" font-family="'ArialMT'" font-size="90.3873px">Tech</text>
				<text transform="matrix(0.9567 0 0 1 243.7739 470.6514)" fill="#9FC749" font-family="'ArialMT'" font-size="90.3873px">Shop</text>
			</g>
		</g>
		<g>
			<path fill="#9FC749" d="M173.53,321.36c-8.82-1.68-16.51-7.11-21.03-14.87c-4.51-7.73-5.47-17.03-2.63-25.51l22.33-80.18
				c-18.57-1.64-35.15-13.71-41.95-32.24L115,127.01c-1.4-3.8,0.55-8,4.34-9.4c0.21-0.07,0.41-0.14,0.58-0.21
				c3.62-1.03,7.49,0.96,8.79,4.55l15.25,41.51c5.13,13.95,18.09,22.7,32.24,22.87l31.32-112.46L97.25,101.84
				c-7.97,2.02-13.2,9.61-12.31,17.78l26.57,209.63c1.16,10.29,11.15,17.2,21.17,14.67l68.25-17.3L173.53,321.36z"/>
			<path fill="#9FC749" d="M323.64,74.53L297,69.57l4.96-26.64c1.81-9.78,11.22-16.24,21.03-14.43l26.64,4.96l-4.96,26.64
				C342.82,69.87,333.42,76.34,323.64,74.53z"/>
			<path fill="#9FC749" d="M388.91,55.31l-26.64-4.96l4.96-26.64c1.81-9.78,11.22-16.24,21.03-14.43l26.64,4.96l-4.96,26.64
				C408.13,50.66,398.69,57.12,388.91,55.31z"/>
			<path fill="#9FC749" d="M271.39,31.17l-18.6-3.45l3.45-18.6c1.13-6.05,6.94-10.05,12.99-8.92l18.6,3.45l-3.45,18.6
				C283.26,28.3,277.44,32.3,271.39,31.17z"/>
			<g>
				<path fill="#9FC749" d="M416.88,120c0.24-8.07-5.4-15.15-13.34-16.65L246.64,73.29c-1.03-0.21-2.09-0.31-3.11-0.31
					c-6.94,0-13.27,4.41-15.56,11.18l-64.76,201.15c-3.32,9.81,2.8,20.31,12.96,22.26l210.9,40.38c1.09,0.21,2.19,0.31,3.25,0.31
					c9.03,0,16.75-7.18,17.03-16.58L416.88,120z"/>
				<path fill="#FFFFFF" d="M249.61,117.78l-4.86,43.97c-2.8,25.61,14.09,48.79,39.32,53.96l26.16,5.37
					c0.21,0.03,0.41,0.07,0.62,0.14c25.13,4.82,50.13-10.6,57.03-35.29l12.1-43.12c1.09-3.9-1.2-7.93-5.06-9.03
					c-0.21-0.07-0.41-0.1-0.62-0.14c-3.69-0.72-7.39,1.54-8.41,5.2l-12.1,43.12c-4.89,17.4-22.33,28.31-40.14,24.89
					c-0.17-0.03-0.34-0.07-0.51-0.1l-26.16-5.37c-17.78-3.62-29.71-20-27.73-38.02l4.86-43.97c0.41-3.8-2.15-7.28-5.85-7.97
					c-0.21-0.03-0.41-0.07-0.62-0.1C253.65,110.87,250.06,113.74,249.61,117.78z"/>
			</g>
		</g>
	</g>
</g>
</svg>
